<?xml version="1.0" encoding="UTF-8" standalone="no"?>
<!-- Created with Inkscape (http://www.inkscape.org/) -->

<svg
   xmlns:dc="http://purl.org/dc/elements/1.1/"
   xmlns:cc="http://creativecommons.org/ns#"
   xmlns:rdf="http://www.w3.org/1999/02/22-rdf-syntax-ns#"
   xmlns:svg="http://www.w3.org/2000/svg"
   xmlns="http://www.w3.org/2000/svg"
   xmlns:xlink="http://www.w3.org/1999/xlink"
   xmlns:sodipodi="http://sodipodi.sourceforge.net/DTD/sodipodi-0.dtd"
   xmlns:inkscape="http://www.inkscape.org/namespaces/inkscape"
   width="70"
   height="13"
   viewBox="0 0 70.000002 13"
   id="svg2"
   version="1.1"
   inkscape:version="0.91 r13725"
   sodipodi:docname="logo.svg"
   inkscape:export-filename="C:\Users\Bruger\workspace\CrystalGo\CrystalGo\server\crystalgo\server\images\logo.png"
   inkscape:export-xdpi="540"
   inkscape:export-ydpi="540">
  <defs
     id="defs4">
    <linearGradient
       inkscape:collect="always"
       id="linearGradient4513">
      <stop
         style="stop-color:#00ff99;stop-opacity:1"
         offset="0"
         id="stop4515" />
      <stop
         style="stop-color:#00aeff;stop-opacity:1"
         offset="1"
         id="stop4517" />
    </linearGradient>
    <linearGradient
       inkscape:collect="always"
       xlink:href="#linearGradient4513"
       id="linearGradient4519"
       x1="179.30466"
       y1="546.48315"
       x2="179.02927"
       y2="556.67975"
       gradientUnits="userSpaceOnUse" />
  </defs>
  <sodipodi:namedview
     id="base"
     pagecolor="#ffffff"
     bordercolor="#666666"
     borderopacity="1.0"
     inkscape:pageopacity="0.0"
     inkscape:pageshadow="2"
     inkscape:zoom="11.2"
     inkscape:cx="35.856799"
     inkscape:cy="-3.7779429"
     inkscape:document-units="px"
     inkscape:current-layer="layer1"
     showgrid="false"
     inkscape:window-width="1473"
     inkscape:window-height="841"
     inkscape:window-x="55"
     inkscape:window-y="-8"
     inkscape:window-maximized="1"
     units="px" />
  <metadata
     id="metadata7">
    <rdf:RDF>
      <cc:Work
         rdf:about="">
        <dc:format>image/svg+xml</dc:format>
        <dc:type
           rdf:resource="http://purl.org/dc/dcmitype/StillImage" />
        <dc:title></dc:title>
      </cc:Work>
    </rdf:RDF>
  </metadata>
  <g
     inkscape:label="Layer 1"
     inkscape:groupmode="layer"
     id="layer1"
     transform="translate(0,-1039.3622)">
    <g
       id="g4373"
       transform="matrix(0.97265014,0,0,0.97195925,-140.11499,509.32786)"
       style="fill-opacity:1;stroke:url(#linearGradient4519);fill:none">
      <path
         d="m 152.97604,546.78961 0,1.56006 q -0.74707,-0.6958 -1.59668,-1.04004 -0.84228,-0.34424 -1.79443,-0.34424 -1.875,0 -2.87109,1.14991 -0.9961,1.14257 -0.9961,3.31054 0,2.16065 0.9961,3.31055 0.99609,1.14258 2.87109,1.14258 0.95215,0 1.79443,-0.34424 0.84961,-0.34424 1.59668,-1.04004 l 0,1.54541 q -0.77636,0.52734 -1.64795,0.79102 -0.86425,0.26367 -1.83105,0.26367 -2.48291,0 -3.91113,-1.51612 -1.42823,-1.52343 -1.42823,-4.15283 0,-2.63672 1.42823,-4.15283 1.42822,-1.52344 3.91113,-1.52344 0.98145,0 1.8457,0.26367 0.87158,0.25635 1.6333,0.77637 z"
         style="font-style:normal;font-weight:normal;font-size:medium;line-height:125%;font-family:sans-serif;letter-spacing:0px;word-spacing:0px;fill:none;fill-opacity:1;stroke:url(#linearGradient4519);stroke-width:0.20569685;stroke-linecap:butt;stroke-linejoin:miter;stroke-miterlimit:4;stroke-dasharray:none;stroke-opacity:1"
         id="path4143"
         inkscape:connector-curvature="0" />
      <path
         d="m 159.97067,549.93903 q -0.22705,-0.13184 -0.49804,-0.19043 -0.26368,-0.0659 -0.58594,-0.0659 -1.14258,0 -1.75781,0.74707 -0.60791,0.73974 -0.60791,2.13135 l 0,4.32129 -1.35498,0 0,-8.20313 1.35498,0 0,1.27441 q 0.4248,-0.74707 1.10595,-1.10595 0.68115,-0.36621 1.65528,-0.36621 0.13916,0 0.30761,0.022 0.16846,0.0147 0.37354,0.0513 l 0.007,1.38428 z"
         style="font-style:normal;font-weight:normal;font-size:medium;line-height:125%;font-family:sans-serif;letter-spacing:0px;word-spacing:0px;fill:none;fill-opacity:1;stroke:url(#linearGradient4519);stroke-width:0.20569685;stroke-linecap:butt;stroke-linejoin:miter;stroke-miterlimit:4;stroke-dasharray:none;stroke-opacity:1"
         id="path4145"
         inkscape:connector-curvature="0" />
      <path
         d="m 175.50534,548.92096 0,1.27441 q -0.57129,-0.29297 -1.18652,-0.43945 -0.61524,-0.14648 -1.27442,-0.14648 -1.00341,0 -1.50879,0.30761 -0.49804,0.30762 -0.49804,0.92285 0,0.46875 0.35888,0.73975 0.35889,0.26367 1.44287,0.50537 l 0.46143,0.10254 q 1.43555,0.30762 2.03613,0.87158 0.60791,0.55664 0.60791,1.56006 0,1.14258 -0.9082,1.80908 -0.90088,0.66651 -2.48291,0.66651 -0.65918,0 -1.37695,-0.13184 -0.71045,-0.12451 -1.50147,-0.38086 l 0,-1.3916 q 0.74707,0.38818 1.47217,0.58594 0.7251,0.19043 1.43555,0.19043 0.95215,0 1.46484,-0.32227 0.5127,-0.32959 0.5127,-0.92285 0,-0.54932 -0.37354,-0.84228 -0.36621,-0.29297 -1.61865,-0.56397 l -0.46875,-0.10986 q -1.25244,-0.26367 -1.80908,-0.80567 -0.55664,-0.54931 -0.55664,-1.50146 0,-1.15723 0.82031,-1.78711 0.82031,-0.62988 2.3291,-0.62988 0.74707,0 1.40625,0.10986 0.65918,0.10986 1.21582,0.32959 z"
         style="font-style:normal;font-weight:normal;font-size:medium;line-height:125%;font-family:sans-serif;letter-spacing:0px;word-spacing:0px;fill:none;fill-opacity:1;stroke:url(#linearGradient4519);stroke-width:0.20569685;stroke-linecap:butt;stroke-linejoin:miter;stroke-miterlimit:4;stroke-dasharray:none;stroke-opacity:1"
         id="path4149"
         inkscape:connector-curvature="0" />
      <path
         d="m 179.43112,546.35016 0,2.3291 2.77588,0 0,1.04736 -2.77588,0 0,4.45313 q 0,1.00342 0.271,1.28906 0.27832,0.28565 1.1206,0.28565 l 1.38428,0 0,1.12793 -1.38428,0 q -1.56006,0 -2.15332,-0.57862 -0.59326,-0.58594 -0.59326,-2.12402 l 0,-4.45313 -0.98877,0 0,-1.04736 0.98877,0 0,-2.3291 1.35498,0 z"
         style="font-style:normal;font-weight:normal;font-size:medium;line-height:125%;font-family:sans-serif;letter-spacing:0px;word-spacing:0px;fill:none;fill-opacity:1;stroke:url(#linearGradient4519);stroke-width:0.20569685;stroke-linecap:butt;stroke-linejoin:miter;stroke-miterlimit:4;stroke-dasharray:none;stroke-opacity:1"
         id="path4151"
         inkscape:connector-curvature="0" />
      <path
         d="m 187.71481,552.75885 q -1.6333,0 -2.26318,0.37354 -0.62988,0.37353 -0.62988,1.27441 0,0.71777 0.46875,1.14258 0.47607,0.41748 1.28906,0.41748 1.1206,0 1.79443,-0.79102 0.68116,-0.79834 0.68116,-2.1167 l 0,-0.30029 -1.34034,0 z m 2.68799,-0.55664 0,4.68018 -1.34765,0 0,-1.24512 q -0.46143,0.74707 -1.14991,1.10596 -0.68847,0.35156 -1.68457,0.35156 -1.25976,0 -2.00683,-0.70313 -0.73975,-0.71045 -0.73975,-1.89697 0,-1.38428 0.92285,-2.0874 0.93018,-0.70313 2.76856,-0.70313 l 1.88965,0 0,-0.13183 q 0,-0.93018 -0.61524,-1.43555 -0.60791,-0.5127 -1.71387,-0.5127 -0.70312,0 -1.36963,0.16846 -0.6665,0.16846 -1.28173,0.50537 l 0,-1.24511 q 0.73974,-0.28565 1.43554,-0.42481 0.6958,-0.14648 1.35498,-0.14648 1.77979,0 2.6587,0.92285 0.8789,0.92285 0.8789,2.79785 z"
         style="font-style:normal;font-weight:normal;font-size:medium;line-height:125%;font-family:sans-serif;letter-spacing:0px;word-spacing:0px;fill:none;fill-opacity:1;stroke:url(#linearGradient4519);stroke-width:0.20569685;stroke-linecap:butt;stroke-linejoin:miter;stroke-miterlimit:4;stroke-dasharray:none;stroke-opacity:1"
         id="path4153"
         inkscape:connector-curvature="0" />
      <path
         d="m 193.186,545.4859 1.34766,0 0,11.39649 -1.34766,0 0,-11.39649 z"
         style="font-style:normal;font-weight:normal;font-size:medium;line-height:125%;font-family:sans-serif;letter-spacing:0px;word-spacing:0px;fill:none;fill-opacity:1;stroke:url(#linearGradient4519);stroke-width:0.20569685;stroke-linecap:butt;stroke-linejoin:miter;stroke-miterlimit:4;stroke-dasharray:none;stroke-opacity:1"
         id="path4155"
         inkscape:connector-curvature="0" />
      <path
         d="m 204.86081,555.32233 0,-2.93702 -2.41699,0 0,-1.21582 3.88183,0 0,4.69483 q -0.85693,0.60791 -1.88965,0.92285 -1.03271,0.30762 -2.20459,0.30762 -2.56347,0 -4.01367,-1.49414 -1.44287,-1.50147 -1.44287,-4.17481 0,-2.68066 1.44287,-4.1748 1.4502,-1.50147 4.01367,-1.50147 1.06934,0 2.02881,0.26367 0.9668,0.26368 1.77979,0.77637 l 0,1.57471 q -0.82031,-0.6958 -1.74317,-1.04736 -0.92285,-0.35157 -1.94091,-0.35157 -2.00684,0 -3.01758,1.12061 -1.00342,1.1206 -1.00342,3.33984 0,2.21192 1.00342,3.33252 1.01074,1.12061 3.01758,1.12061 0.78369,0 1.39892,-0.13184 0.61524,-0.13916 1.10596,-0.4248 z"
         style="font-style:normal;font-weight:normal;font-size:medium;line-height:125%;font-family:sans-serif;letter-spacing:0px;word-spacing:0px;fill:none;fill-opacity:1;stroke:url(#linearGradient4519);stroke-width:0.20569685;stroke-linecap:butt;stroke-linejoin:miter;stroke-miterlimit:4;stroke-dasharray:none;stroke-opacity:1"
         id="path4157"
         inkscape:connector-curvature="0" />
      <path
         d="m 212.15573,549.62408 q -1.08398,0 -1.71387,0.84961 -0.62988,0.84229 -0.62988,2.31446 0,1.47216 0.62256,2.32177 0.62988,0.84229 1.72119,0.84229 1.07666,0 1.70654,-0.84961 0.62989,-0.84961 0.62989,-2.31445 0,-1.45752 -0.62989,-2.30713 -0.62988,-0.85694 -1.70654,-0.85694 z m 0,-1.14257 q 1.75781,0 2.76123,1.14257 1.00342,1.14258 1.00342,3.16407 0,2.01416 -1.00342,3.16406 -1.00342,1.14258 -2.76123,1.14258 -1.76514,0 -2.76855,-1.14258 -0.9961,-1.1499 -0.9961,-3.16406 0,-2.02149 0.9961,-3.16407 1.00341,-1.14257 2.76855,-1.14257 z"
         style="font-style:normal;font-weight:normal;font-size:medium;line-height:125%;font-family:sans-serif;letter-spacing:0px;word-spacing:0px;fill:none;fill-opacity:1;stroke:url(#linearGradient4519);stroke-width:0.20569685;stroke-linecap:butt;stroke-linejoin:miter;stroke-miterlimit:4;stroke-dasharray:none;stroke-opacity:1"
         id="path4159"
         inkscape:connector-curvature="0" />
      <path
         sodipodi:nodetypes="cccc"
         inkscape:connector-curvature="0"
         id="path4170"
         d="m 160.83523,548.67489 7.98652,0 -4.00905,9.75428 z"
         style="fill:none;fill-rule:evenodd;stroke:url(#linearGradient4519);stroke-width:0.20569685;stroke-linecap:butt;stroke-linejoin:miter;stroke-miterlimit:4;stroke-dasharray:none;stroke-opacity:1;fill-opacity:1" />
    </g>
  </g>
</svg>
