<?xml version="1.0" encoding="UTF-8" standalone="no"?>
<!-- Created with Inkscape (http://www.inkscape.org/) -->

<svg
   xmlns:dc="http://purl.org/dc/elements/1.1/"
   xmlns:cc="http://creativecommons.org/ns#"
   xmlns:rdf="http://www.w3.org/1999/02/22-rdf-syntax-ns#"
   xmlns:svg="http://www.w3.org/2000/svg"
   xmlns="http://www.w3.org/2000/svg"
   xmlns:xlink="http://www.w3.org/1999/xlink"
   xmlns:sodipodi="http://sodipodi.sourceforge.net/DTD/sodipodi-0.dtd"
   xmlns:inkscape="http://www.inkscape.org/namespaces/inkscape"
   width="70"
   height="13"
   viewBox="0 0 70.000002 13"
   id="svg2"
   version="1.1"
   inkscape:version="0.91 r13725"
   sodipodi:docname="logo.svg"
   inkscape:export-filename="C:\Users\Bruger\workspace\CrystalGo\CrystalGo\server\crystalgo\server\images\logo.png"
   inkscape:export-xdpi="540"
   inkscape:export-ydpi="540">
  <defs
     id="defs4">
    <linearGradient
       inkscape:collect="always"
       id="linearGradient4513">
      <stop
         style="stop-color:#00ff99;stop-opacity:1"
         offset="0"
         id="stop4515" />
      <stop
         style="stop-color:#00aeff;stop-opacity:1"
         offset="1"
         id="stop4517" />
    </linearGradient>
    <linearGradient
       inkscape:collect="always"
       xlink:href="#linearGradient4513"
       id="linearGradient5694"
       x1="179.30466"
       y1="546.48315"
       x2="179.02927"
       y2="556.67975"
       gradientUnits="userSpaceOnUse" />
    <linearGradient
       inkscape:collect="always"
       xlink:href="#linearGradient4513"
       id="linearGradient5702"
       x1="179.30466"
       y1="546.48315"
       x2="179.02927"
       y2="556.67975"
       gradientUnits="userSpaceOnUse" />
    <linearGradient
       inkscape:collect="always"
       xlink:href="#linearGradient4513"
       id="linearGradient5710"
       x1="179.30466"
       y1="546.48315"
       x2="179.02927"
       y2="556.67975"
       gradientUnits="userSpaceOnUse" />
    <linearGradient
       inkscape:collect="always"
       xlink:href="#linearGradient4513"
       id="linearGradient5718"
       x1="179.30466"
       y1="546.48315"
       x2="179.02927"
       y2="556.67975"
       gradientUnits="userSpaceOnUse" />
    <linearGradient
       inkscape:collect="always"
       xlink:href="#linearGradient4513"
       id="linearGradient5726"
       x1="179.30466"
       y1="546.48315"
       x2="179.02927"
       y2="556.67975"
       gradientUnits="userSpaceOnUse" />
    <linearGradient
       inkscape:collect="always"
       xlink:href="#linearGradient4513"
       id="linearGradient5734"
       x1="179.30466"
       y1="546.48315"
       x2="179.02927"
       y2="556.67975"
       gradientUnits="userSpaceOnUse" />
    <linearGradient
       inkscape:collect="always"
       xlink:href="#linearGradient4513"
       id="linearGradient5742"
       x1="179.30466"
       y1="546.48315"
       x2="179.02927"
       y2="556.67975"
       gradientUnits="userSpaceOnUse" />
    <linearGradient
       inkscape:collect="always"
       xlink:href="#linearGradient4513"
       id="linearGradient5750"
       x1="179.30466"
       y1="546.48315"
       x2="179.02927"
       y2="556.67975"
       gradientUnits="userSpaceOnUse" />
    <linearGradient
       y2="556.50818"
       x2="179.99864"
       y1="545.94409"
       x1="179.35606"
       gradientUnits="userSpaceOnUse"
       id="linearGradient5768"
       xlink:href="#linearGradient4513"
       inkscape:collect="always"
       gradientTransform="matrix(0.974042,0,0,0.97338074,-140.31564,508.7668)" />
    <linearGradient
       y2="556.50818"
       x2="179.99864"
       y1="545.94409"
       x1="179.35606"
       gradientUnits="userSpaceOnUse"
       id="linearGradient5770"
       xlink:href="#linearGradient4513"
       inkscape:collect="always"
       gradientTransform="matrix(0.974042,0,0,0.97338074,-140.31564,508.7668)" />
    <linearGradient
       y2="556.50818"
       x2="180.10118"
       y1="545.94409"
       x1="179.45862"
       gradientUnits="userSpaceOnUse"
       id="linearGradient5772"
       xlink:href="#linearGradient4513"
       inkscape:collect="always"
       gradientTransform="matrix(0.974042,0,0,0.97338074,-140.41552,508.7668)" />
    <linearGradient
       y2="556.50818"
       x2="180.10118"
       y1="545.94409"
       x1="179.45862"
       gradientUnits="userSpaceOnUse"
       id="linearGradient5774"
       xlink:href="#linearGradient4513"
       inkscape:collect="always"
       gradientTransform="matrix(0.974042,0,0,0.97338074,-140.41552,508.7668)" />
    <linearGradient
       y2="556.50818"
       x2="180.10118"
       y1="545.94409"
       x1="179.45862"
       gradientUnits="userSpaceOnUse"
       id="linearGradient5776"
       xlink:href="#linearGradient4513"
       inkscape:collect="always"
       gradientTransform="matrix(0.974042,0,0,0.97338074,-140.41552,508.7668)" />
    <linearGradient
       y2="556.50818"
       x2="180.10118"
       y1="545.94409"
       x1="179.45862"
       gradientUnits="userSpaceOnUse"
       id="linearGradient5778"
       xlink:href="#linearGradient4513"
       inkscape:collect="always"
       gradientTransform="matrix(0.974042,0,0,0.97338074,-140.41552,508.7668)" />
    <linearGradient
       y2="556.50818"
       x2="180.10118"
       y1="545.94409"
       x1="179.45862"
       gradientUnits="userSpaceOnUse"
       id="linearGradient5780"
       xlink:href="#linearGradient4513"
       inkscape:collect="always"
       gradientTransform="matrix(0.974042,0,0,0.97338074,-140.41552,508.7668)" />
    <linearGradient
       y2="556.50818"
       x2="180.10118"
       y1="545.94409"
       x1="179.45862"
       gradientUnits="userSpaceOnUse"
       id="linearGradient5782"
       xlink:href="#linearGradient4513"
       inkscape:collect="always"
       gradientTransform="matrix(0.974042,0,0,0.97338074,-140.41552,508.7668)" />
    <linearGradient
       y2="556.12946"
       x2="183.48299"
       y1="546.45758"
       x1="182.69008"
       gradientUnits="userSpaceOnUse"
       id="linearGradient5784"
       xlink:href="#linearGradient4513"
       inkscape:collect="always"
       gradientTransform="matrix(0.78936168,0,0,1.063169,-109.82384,-580.16068)" />
    <linearGradient
       inkscape:collect="always"
       xlink:href="#linearGradient4513"
       id="linearGradient6718"
       x1="44.223915"
       y1="1056.1539"
       x2="45.115005"
       y2="1070.7867"
       gradientUnits="userSpaceOnUse"
       gradientTransform="translate(0.89285714,0.17857143)" />
  </defs>
  <sodipodi:namedview
     id="base"
     pagecolor="#ffffff"
     bordercolor="#666666"
     borderopacity="1.0"
     inkscape:pageopacity="0.0"
     inkscape:pageshadow="2"
     inkscape:zoom="90.509668"
     inkscape:cx="19.809083"
     inkscape:cy="6.5505403"
     inkscape:document-units="px"
     inkscape:current-layer="layer1"
     showgrid="false"
     inkscape:window-width="1473"
     inkscape:window-height="841"
     inkscape:window-x="55"
     inkscape:window-y="-8"
     inkscape:window-maximized="1"
     units="px" />
  <metadata
     id="metadata7">
    <rdf:RDF>
      <cc:Work
         rdf:about="">
        <dc:format>image/svg+xml</dc:format>
        <dc:type
           rdf:resource="http://purl.org/dc/dcmitype/StillImage" />
        <dc:title></dc:title>
      </cc:Work>
    </rdf:RDF>
  </metadata>
  <g
     inkscape:label="Layer 1"
     inkscape:groupmode="layer"
     id="layer1"
     transform="translate(0,-1039.3622)">
    <path
       inkscape:connector-curvature="0"
       id="path4143-6"
       style="font-style:normal;font-weight:normal;font-size:medium;line-height:125%;font-family:sans-serif;letter-spacing:0px;word-spacing:0px;fill:none;fill-opacity:1;stroke:url(#linearGradient5768);stroke-width:0.2;stroke-linecap:butt;stroke-linejoin:miter;stroke-miterlimit:4;stroke-dasharray:none;stroke-opacity:1"
       d="m 8.689453,1041.0013 0,1.5185 q -0.7276775,-0.6773 -1.5552333,-1.0124 -0.8204162,-0.335 -1.7478502,-0.335 -1.8263288,0 -2.7965623,1.1193 -0.9702432,1.1121 -0.9702432,3.2224 0,2.1032 0.9702432,3.2224 0.9702335,1.1122 2.7965623,1.1122 0.927434,0 1.7478502,-0.3351 0.8275558,-0.335 1.5552333,-1.0123 l 0,1.5043 q -0.7562071,0.5132 -1.6051725,0.7699 -0.8418158,0.2567 -1.7835195,0.2567 -2.4184587,0 -3.809605,-1.4758 Q 0.1,1048.0735 0.1,1045.5141 q 0,-2.5665 1.391156,-4.0423 1.3911463,-1.4829 3.809605,-1.4829 0.9559735,0 1.7977892,0.2567 0.8489556,0.2495 1.5909028,0.7557 z" />
    <path
       inkscape:connector-curvature="0"
       id="path4145-3"
       style="font-style:normal;font-weight:normal;font-size:medium;line-height:125%;font-family:sans-serif;letter-spacing:0px;word-spacing:0px;fill:none;fill-opacity:1;stroke:url(#linearGradient5770);stroke-width:0.2;stroke-linecap:butt;stroke-linejoin:miter;stroke-miterlimit:4;stroke-dasharray:none;stroke-opacity:1"
       d="m 15.502517,1044.0669 q -0.221158,-0.1284 -0.485113,-0.1854 -0.256835,-0.064 -0.57073,-0.064 -1.112921,0 -1.712181,0.7273 -0.59213,0.72 -0.59213,2.0746 l 0,4.2063 -1.319807,0 0,-7.9848 1.319807,0 0,1.2404 q 0.413773,-0.7272 1.077242,-1.0765 0.663468,-0.3564 1.612312,-0.3564 0.135548,0 0.299625,0.021 0.164088,0.014 0.363844,0.05 l 0.0068,1.3475 z" />
    <path
       inkscape:connector-curvature="0"
       id="path4149-2"
       style="font-style:normal;font-weight:normal;font-size:medium;line-height:125%;font-family:sans-serif;letter-spacing:0px;word-spacing:0px;fill:none;fill-opacity:1;stroke:url(#linearGradient5772);stroke-width:0.2;stroke-linecap:butt;stroke-linejoin:miter;stroke-miterlimit:4;stroke-dasharray:none;stroke-opacity:1"
       d="m 30.534053,1043.0759 0,1.2404 q -0.556461,-0.2851 -1.155721,-0.4277 -0.59927,-0.1426 -1.241338,-0.1426 -0.977364,0 -1.469625,0.2995 -0.485113,0.2994 -0.485113,0.8983 0,0.4562 0.349565,0.72 0.349573,0.2567 1.405416,0.4919 l 0.449452,0.1002 q 1.398286,0.2994 1.983276,0.8483 0.592131,0.5418 0.592131,1.5185 0,1.1123 -0.884626,1.761 -0.877494,0.6488 -2.418458,0.6488 -0.64207,0 -1.341208,-0.1283 -0.692008,-0.1213 -1.462495,-0.3708 l 0,-1.3545 q 0.727678,0.3778 1.433956,0.5703 0.706278,0.1854 1.398286,0.1854 0.927434,0 1.426815,-0.3137 0.499392,-0.3209 0.499392,-0.8983 0,-0.5347 -0.363844,-0.8199 -0.356704,-0.2851 -1.576633,-0.5489 l -0.456581,-0.107 q -1.21993,-0.2566 -1.76212,-0.7842 -0.542191,-0.5347 -0.542191,-1.4615 0,-1.1264 0.799016,-1.7395 0.799016,-0.6132 2.268641,-0.6132 0.727678,0 1.369747,0.107 0.642069,0.1069 1.18426,0.3208 z" />
    <path
       inkscape:connector-curvature="0"
       id="path4151-7"
       style="font-style:normal;font-weight:normal;font-size:medium;line-height:125%;font-family:sans-serif;letter-spacing:0px;word-spacing:0px;fill:none;fill-opacity:1;stroke:url(#linearGradient5774);stroke-width:0.2;stroke-linecap:butt;stroke-linejoin:miter;stroke-miterlimit:4;stroke-dasharray:none;stroke-opacity:1"
       d="m 34.357927,1040.5736 0,2.267 2.703824,0 0,1.0195 -2.703824,0 0,4.3346 q 0,0.9767 0.263965,1.2547 0.271096,0.2781 1.091512,0.2781 l 1.348347,0 0,1.098 -1.348347,0 q -1.519564,0 -2.097424,-0.5633 -0.57786,-0.5704 -0.57786,-2.0675 l 0,-4.3346 -0.963104,0 0,-1.0195 0.963104,0 0,-2.267 1.319807,0 z" />
    <path
       style="font-style:normal;font-weight:normal;font-size:medium;line-height:125%;font-family:sans-serif;letter-spacing:0px;word-spacing:0px;fill:none;fill-opacity:1;stroke:url(#linearGradient5776);stroke-width:0.2;stroke-linecap:butt;stroke-linejoin:miter;stroke-miterlimit:4;stroke-dasharray:none;stroke-opacity:1"
       d="m 41.599535,1042.6478 c -0.428046,0 -0.86842,0.048 -1.320246,0.1428 -0.451825,0.09 -0.918124,0.2275 -1.398482,0.4127 l 0,1.2128 c 0.399507,-0.2187 0.815078,-0.3817 1.247876,-0.491 0.432807,-0.1093 0.877359,-0.1643 1.333938,-0.1643 0.718168,0 1.275602,0.1661 1.670355,0.4988 0.399513,0.3279 0.598512,0.7929 0.598512,1.3965 l 0,0.1291 -1.840521,0 c -1.193772,0 -2.091235,0.2283 -2.695257,0.6846 -0.599264,0.4563 -0.899724,1.134 -0.899724,2.0323 0,0.77 0.239414,1.3855 0.719779,1.8465 0.485119,0.4562 1.137881,0.6826 1.95592,0.6826 0.646829,0 1.193951,-0.1122 1.641017,-0.3403 0.447072,-0.233 0.819151,-0.593 1.118786,-1.0778 l 0,1.2127 1.312423,0 0,-4.5555 c 0,-1.2167 -0.284014,-2.1258 -0.854738,-2.7247 -0.57073,-0.5989 -1.433911,-0.8978 -2.589638,-0.8978 z m 0.827354,4.1643 1.304599,0 0,0.2915 c 0,0.8555 -0.220738,1.5435 -0.663057,2.0615 -0.437559,0.5134 -1.020918,0.7688 -1.748592,0.7688 -0.527925,0 -0.944603,-0.1359 -1.253745,-0.4068 -0.304388,-0.2757 -0.457685,-0.6453 -0.457685,-1.1111 0,-0.5845 0.205139,-0.9976 0.614158,-1.2401 0.409021,-0.2424 1.143721,-0.3638 2.204322,-0.3638 z"
       id="path4153-7"
       inkscape:connector-curvature="0" />
    <path
       inkscape:connector-curvature="0"
       id="path4155-0"
       style="font-style:normal;font-weight:normal;font-size:medium;line-height:125%;font-family:sans-serif;letter-spacing:0px;word-spacing:0px;fill:none;fill-opacity:1;stroke:url(#linearGradient5778);stroke-width:0.2;stroke-linecap:butt;stroke-linejoin:miter;stroke-miterlimit:4;stroke-dasharray:none;stroke-opacity:1"
       d="m 47.755758,1039.7323 1.312678,0 0,11.0932 -1.312678,0 0,-11.0932 z" />
    <path
       inkscape:connector-curvature="0"
       id="path4157-8"
       style="font-style:normal;font-weight:normal;font-size:medium;line-height:125%;font-family:sans-serif;letter-spacing:0px;word-spacing:0px;fill:none;fill-opacity:1;stroke:url(#linearGradient5780);stroke-width:0.2;stroke-linecap:butt;stroke-linejoin:miter;stroke-miterlimit:4;stroke-dasharray:none;stroke-opacity:1"
       d="m 59.127514,1049.3068 0,-2.8587 -2.35425,0 0,-1.1836 3.781065,0 0,4.5699 q -0.834686,0.5918 -1.840599,0.8983 -1.005903,0.2995 -2.147363,0.2995 -2.496927,0 -3.909483,-1.4544 -1.405416,-1.4615 -1.405416,-4.0637 0,-2.6093 1.405416,-4.0636 1.412556,-1.4616 3.909483,-1.4616 1.041582,0 1.976147,0.2567 0.941703,0.2567 1.73359,0.7557 l 0,1.5327 q -0.799017,-0.6772 -1.697921,-1.0194 -0.898895,-0.3422 -1.890528,-0.3422 -1.954747,0 -2.93925,1.0908 -0.977373,1.0907 -0.977373,3.2509 0,2.153 0.977373,3.2438 0.984503,1.0908 2.93925,1.0908 0.763347,0 1.362606,-0.1284 0.599271,-0.1354 1.077253,-0.4135 z" />
    <path
       inkscape:connector-curvature="0"
       id="path4159-8"
       style="font-style:normal;font-weight:normal;font-size:medium;line-height:125%;font-family:sans-serif;letter-spacing:0px;word-spacing:0px;fill:none;fill-opacity:1;stroke:url(#linearGradient5782);stroke-width:0.2;stroke-linecap:butt;stroke-linejoin:miter;stroke-miterlimit:4;stroke-dasharray:none;stroke-opacity:1"
       d="m 66.233071,1043.7603 q -1.055842,0 -1.66938,0.827 -0.61353,0.8198 -0.61353,2.2528 0,1.433 0.6064,2.26 0.613529,0.8199 1.67651,0.8199 1.048713,0 1.662242,-0.827 0.613539,-0.827 0.613539,-2.2529 0,-1.4186 -0.613539,-2.2456 -0.613529,-0.8342 -1.662242,-0.8342 z m 0,-1.1122 q 1.712182,0 2.689554,1.1122 0.977374,1.1122 0.977374,3.0798 0,1.9606 -0.977374,3.0799 -0.977372,1.1122 -2.689554,1.1122 -1.71932,0 -2.696683,-1.1122 -0.970244,-1.1193 -0.970244,-3.0799 0,-1.9676 0.970244,-3.0798 0.977363,-1.1122 2.696683,-1.1122 z" />
    <path
       style="fill:none;fill-opacity:1;fill-rule:evenodd;stroke:url(#linearGradient5784);stroke-width:0.2;stroke-linecap:butt;stroke-linejoin:miter;stroke-miterlimit:4;stroke-dasharray:none;stroke-opacity:1"
       d="M 19.035387 4.5869 L 22.269121 4.5869 L 23.486457 6.8213 L 20.240226 12.7907 L 16.993996 6.8213 L 18.009052 4.9581819 "
       id="path4170-3"
       transform="translate(0,1039.3622)" />
    <path
       sodipodi:type="star"
       style="fill:none;fill-opacity:1;stroke:url(#linearGradient6718);stroke-width:0.28467348;stroke-linejoin:round;stroke-miterlimit:4;stroke-dasharray:none"
       id="path6710"
       sodipodi:sides="5"
       sodipodi:cx="22.390165"
       sodipodi:cy="1061.6006"
       sodipodi:r1="1.5761521"
       sodipodi:r2="0.78807604"
       sodipodi:arg1="0.57133748"
       sodipodi:arg2="1.199656"
       inkscape:flatsided="false"
       inkscape:rounded="0"
       inkscape:randomized="0"
       d="m 23.715991,1062.4529 -1.040008,-0.1179 -0.686716,0.7899 -0.209253,-1.0255 -0.963443,-0.4091 0.910682,-0.5159 0.09128,-1.0427 0.772086,0.7067 1.019854,-0.2354 -0.433507,0.9527 z"
       inkscape:transform-center-x="0.087015437"
       inkscape:transform-center-y="0.019490349"
       transform="matrix(0.70239213,0,0,0.70272641,2.6950409,297.86554)" />
  </g>
</svg>
